{
	"patcher" : 	{
		"fileversion" : 1,
		"appversion" : 		{
			"major" : 8,
			"minor" : 1,
			"revision" : 5,
			"architecture" : "x64",
			"modernui" : 1
		}
,
		"classnamespace" : "box",
		"rect" : [ 34.0, 79.0, 1612.0, 900.0 ],
		"bglocked" : 0,
		"openinpresentation" : 1,
		"default_fontsize" : 12.0,
		"default_fontface" : 0,
		"default_fontname" : "Arial",
		"gridonopen" : 1,
		"gridsize" : [ 15.0, 15.0 ],
		"gridsnaponopen" : 1,
		"objectsnaponopen" : 1,
		"statusbarvisible" : 2,
		"toolbarvisible" : 1,
		"lefttoolbarpinned" : 0,
		"toptoolbarpinned" : 0,
		"righttoolbarpinned" : 0,
		"bottomtoolbarpinned" : 0,
		"toolbars_unpinned_last_save" : 0,
		"tallnewobj" : 0,
		"boxanimatetime" : 200,
		"enablehscroll" : 1,
		"enablevscroll" : 1,
		"devicewidth" : 0.0,
		"description" : "",
		"digest" : "",
		"tags" : "",
		"style" : "",
		"subpatcher_template" : "",
		"assistshowspatchername" : 0,
		"boxes" : [ 			{
				"box" : 				{
					"id" : "obj-17",
					"maxclass" : "newobj",
					"numinlets" : 1,
					"numoutlets" : 0,
					"patching_rect" : [ 777.0, 457.0, 80.0, 22.0 ],
					"text" : "print distance"
				}

			}
, 			{
				"box" : 				{
					"id" : "obj-75",
					"maxclass" : "newobj",
					"numinlets" : 1,
					"numoutlets" : 0,
					"patching_rect" : [ 995.5, 601.000000039062456, 127.0, 22.0 ],
					"text" : "s knn.reset_histogram"
				}

			}
, 			{
				"box" : 				{
					"id" : "obj-14",
					"maxclass" : "newobj",
					"numinlets" : 1,
					"numoutlets" : 1,
					"outlettype" : [ "bang" ],
					"patching_rect" : [ 995.5, 573.999999960937544, 22.0, 22.0 ],
					"text" : "t b"
				}

			}
, 			{
				"box" : 				{
					"id" : "obj-107",
					"maxclass" : "newobj",
					"numinlets" : 4,
					"numoutlets" : 1,
					"outlettype" : [ "" ],
					"patcher" : 					{
						"fileversion" : 1,
						"appversion" : 						{
							"major" : 8,
							"minor" : 1,
							"revision" : 5,
							"architecture" : "x64",
							"modernui" : 1
						}
,
						"classnamespace" : "box",
						"rect" : [ 34.0, 79.0, 1095.0, 900.0 ],
						"bglocked" : 0,
						"openinpresentation" : 0,
						"default_fontsize" : 12.0,
						"default_fontface" : 0,
						"default_fontname" : "Arial",
						"gridonopen" : 1,
						"gridsize" : [ 15.0, 15.0 ],
						"gridsnaponopen" : 1,
						"objectsnaponopen" : 1,
						"statusbarvisible" : 2,
						"toolbarvisible" : 1,
						"lefttoolbarpinned" : 0,
						"toptoolbarpinned" : 0,
						"righttoolbarpinned" : 0,
						"bottomtoolbarpinned" : 0,
						"toolbars_unpinned_last_save" : 0,
						"tallnewobj" : 0,
						"boxanimatetime" : 200,
						"enablehscroll" : 1,
						"enablevscroll" : 1,
						"devicewidth" : 0.0,
						"description" : "",
						"digest" : "",
						"tags" : "",
						"style" : "",
						"subpatcher_template" : "",
						"assistshowspatchername" : 0,
						"boxes" : [ 							{
								"box" : 								{
									"id" : "obj-14",
									"linecount" : 2,
									"maxclass" : "comment",
									"numinlets" : 1,
									"numoutlets" : 0,
									"patching_rect" : [ 702.0, 233.000000039062456, 150.0, 33.0 ],
									"text" : "if K is 1, dont attempt rotate recursion"
								}

							}
, 							{
								"box" : 								{
									"id" : "obj-12",
									"maxclass" : "newobj",
									"numinlets" : 2,
									"numoutlets" : 1,
									"outlettype" : [ "int" ],
									"patching_rect" : [ 670.0, 233.000000039062456, 29.5, 22.0 ],
									"text" : "> 1"
								}

							}
, 							{
								"box" : 								{
									"id" : "obj-11",
									"maxclass" : "newobj",
									"numinlets" : 2,
									"numoutlets" : 1,
									"outlettype" : [ "" ],
									"patching_rect" : [ 670.0, 269.000000039062456, 32.0, 22.0 ],
									"text" : "gate"
								}

							}
, 							{
								"box" : 								{
									"id" : "obj-10",
									"linecount" : 2,
									"maxclass" : "comment",
									"numinlets" : 1,
									"numoutlets" : 0,
									"patching_rect" : [ 750.0, 344.000000039062456, 238.0, 33.0 ],
									"presentation_linecount" : 2,
									"text" : "after rotating through all possible K choices\nreset histogram to start over again"
								}

							}
, 							{
								"box" : 								{
									"id" : "obj-8",
									"maxclass" : "newobj",
									"numinlets" : 1,
									"numoutlets" : 3,
									"outlettype" : [ "int", "int", "int" ],
									"patching_rect" : [ 670.0, 114.0, 40.0, 22.0 ],
									"text" : "t i 1 i"
								}

							}
, 							{
								"box" : 								{
									"id" : "obj-4",
									"maxclass" : "newobj",
									"numinlets" : 1,
									"numoutlets" : 1,
									"outlettype" : [ "int" ],
									"patching_rect" : [ 466.000000023437451, 429.000000039062456, 22.0, 22.0 ],
									"text" : "t 1"
								}

							}
, 							{
								"box" : 								{
									"id" : "obj-2",
									"maxclass" : "newobj",
									"numinlets" : 2,
									"numoutlets" : 1,
									"outlettype" : [ "" ],
									"patching_rect" : [ 41.0, 619.0, 32.0, 22.0 ],
									"text" : "gate"
								}

							}
, 							{
								"box" : 								{
									"comment" : "K number",
									"id" : "obj-1",
									"index" : 4,
									"maxclass" : "inlet",
									"numinlets" : 0,
									"numoutlets" : 1,
									"outlettype" : [ "" ],
									"patching_rect" : [ 670.0, 77.0, 30.0, 30.0 ]
								}

							}
, 							{
								"box" : 								{
									"id" : "obj-102",
									"maxclass" : "comment",
									"numinlets" : 1,
									"numoutlets" : 0,
									"patching_rect" : [ 732.000000023437451, 309.000000039062456, 300.0, 20.0 ],
									"text" : "counter max should always be the number of K results"
								}

							}
, 							{
								"box" : 								{
									"id" : "obj-91",
									"linecount" : 4,
									"maxclass" : "comment",
									"numinlets" : 1,
									"numoutlets" : 0,
									"patching_rect" : [ 641.0, 561.920471230468706, 208.0, 74.0 ],
									"text" : "if occurrence hits threshold, re-bang stashed output from KNN, rotate it if possible, and recheck against histogram thresholds\n"
								}

							}
, 							{
								"box" : 								{
									"id" : "obj-89",
									"maxclass" : "newobj",
									"numinlets" : 1,
									"numoutlets" : 2,
									"outlettype" : [ "bang", "bang" ],
									"patching_rect" : [ 531.000000023437451, 628.583801308593706, 32.0, 22.0 ],
									"text" : "t b b"
								}

							}
, 							{
								"box" : 								{
									"id" : "obj-86",
									"maxclass" : "newobj",
									"numinlets" : 1,
									"numoutlets" : 2,
									"outlettype" : [ "", "" ],
									"patching_rect" : [ 118.25, 221.000000039062456, 29.5, 22.0 ],
									"text" : "t l l"
								}

							}
, 							{
								"box" : 								{
									"id" : "obj-46",
									"maxclass" : "newobj",
									"numinlets" : 2,
									"numoutlets" : 2,
									"outlettype" : [ "", "" ],
									"patching_rect" : [ 128.75, 260.000000039062456, 38.0, 22.0 ],
									"text" : "zl reg"
								}

							}
, 							{
								"box" : 								{
									"id" : "obj-50",
									"maxclass" : "newobj",
									"numinlets" : 2,
									"numoutlets" : 2,
									"outlettype" : [ "", "" ],
									"patching_rect" : [ 118.25, 294.000000039062456, 47.0, 22.0 ],
									"text" : "zl nth 1"
								}

							}
, 							{
								"box" : 								{
									"id" : "obj-85",
									"maxclass" : "newobj",
									"numinlets" : 1,
									"numoutlets" : 1,
									"outlettype" : [ "" ],
									"patching_rect" : [ 768.000000023437451, 270.000000039062456, 93.0, 22.0 ],
									"text" : "loadmess min 1"
								}

							}
, 							{
								"box" : 								{
									"id" : "obj-74",
									"maxclass" : "newobj",
									"numinlets" : 5,
									"numoutlets" : 4,
									"outlettype" : [ "int", "", "", "int" ],
									"patching_rect" : [ 670.0, 309.000000039062456, 61.0, 22.0 ],
									"text" : "counter"
								}

							}
, 							{
								"box" : 								{
									"id" : "obj-73",
									"maxclass" : "newobj",
									"numinlets" : 1,
									"numoutlets" : 1,
									"outlettype" : [ "" ],
									"patching_rect" : [ 323.000000023437451, 216.000000039062456, 70.0, 22.0 ],
									"text" : "loadmess 1"
								}

							}
, 							{
								"box" : 								{
									"id" : "obj-72",
									"maxclass" : "comment",
									"numinlets" : 1,
									"numoutlets" : 0,
									"patching_rect" : [ 374.000000023437451, 245.000000039062456, 153.0, 20.0 ],
									"text" : "rotate which K result to use"
								}

							}
, 							{
								"box" : 								{
									"id" : "obj-70",
									"maxclass" : "comment",
									"numinlets" : 1,
									"numoutlets" : 0,
									"patching_rect" : [ 171.468017578125, 260.000000039062456, 150.0, 20.0 ],
									"text" : "stash original values"
								}

							}
, 							{
								"box" : 								{
									"id" : "obj-51",
									"maxclass" : "newobj",
									"numinlets" : 1,
									"numoutlets" : 2,
									"outlettype" : [ "", "" ],
									"patching_rect" : [ 50.25, 216.000000039062456, 29.5, 22.0 ],
									"text" : "t l l"
								}

							}
, 							{
								"box" : 								{
									"id" : "obj-66",
									"maxclass" : "newobj",
									"numinlets" : 2,
									"numoutlets" : 2,
									"outlettype" : [ "", "" ],
									"patching_rect" : [ 60.75, 260.000000039062456, 38.0, 22.0 ],
									"text" : "zl reg"
								}

							}
, 							{
								"box" : 								{
									"id" : "obj-65",
									"maxclass" : "number",
									"numinlets" : 1,
									"numoutlets" : 2,
									"outlettype" : [ "", "bang" ],
									"parameter_enable" : 0,
									"patching_rect" : [ 323.000000023437451, 244.000000039062456, 50.0, 22.0 ]
								}

							}
, 							{
								"box" : 								{
									"id" : "obj-52",
									"maxclass" : "newobj",
									"numinlets" : 2,
									"numoutlets" : 2,
									"outlettype" : [ "", "" ],
									"patching_rect" : [ 50.25, 294.000000039062456, 47.0, 22.0 ],
									"text" : "zl nth 1"
								}

							}
, 							{
								"box" : 								{
									"id" : "obj-60",
									"maxclass" : "newobj",
									"numinlets" : 2,
									"numoutlets" : 2,
									"outlettype" : [ "bang", "" ],
									"patching_rect" : [ 531.000000023437451, 602.920471230468706, 34.0, 22.0 ],
									"text" : "sel 0"
								}

							}
, 							{
								"box" : 								{
									"id" : "obj-53",
									"maxclass" : "newobj",
									"numinlets" : 2,
									"numoutlets" : 1,
									"outlettype" : [ "int" ],
									"patching_rect" : [ 531.000000023437451, 576.920471230468706, 32.0, 22.0 ],
									"text" : "< 20"
								}

							}
, 							{
								"box" : 								{
									"id" : "obj-54",
									"linecount" : 5,
									"maxclass" : "comment",
									"numinlets" : 1,
									"numoutlets" : 0,
									"patching_rect" : [ 79.968017578125, 502.920471230468706, 346.0, 74.0 ],
									"text" : "if the occurences of that buffer/marker are above a threshold, \ntry to use the next nearest KNN match (if K > 1) \n\nif the occurrances are above a second threshold, exclude them from from KNN matching all together"
								}

							}
, 							{
								"box" : 								{
									"id" : "obj-56",
									"maxclass" : "newobj",
									"numinlets" : 2,
									"numoutlets" : 2,
									"outlettype" : [ "", "" ],
									"patching_rect" : [ 495.000000023437451, 532.000000039062456, 55.0, 22.0 ],
									"text" : "zl slice 2"
								}

							}
, 							{
								"box" : 								{
									"id" : "obj-59",
									"maxclass" : "newobj",
									"numinlets" : 1,
									"numoutlets" : 2,
									"outlettype" : [ "int", "int" ],
									"patching_rect" : [ 69.5, 395.000000039062456, 135.0, 22.0 ],
									"text" : "unpack i i"
								}

							}
, 							{
								"box" : 								{
									"id" : "obj-61",
									"maxclass" : "message",
									"numinlets" : 2,
									"numoutlets" : 1,
									"outlettype" : [ "" ],
									"patching_rect" : [ 495.000000023437451, 429.000000039062456, 35.0, 22.0 ],
									"text" : "reset"
								}

							}
, 							{
								"box" : 								{
									"id" : "obj-63",
									"linecount" : 2,
									"maxclass" : "comment",
									"numinlets" : 1,
									"numoutlets" : 0,
									"patching_rect" : [ 94.5, 360.000000039062456, 344.0, 33.0 ],
									"text" : "first send marker+buffer values to a histogram to analyze how many times a particular segment has already sounded"
								}

							}
, 							{
								"box" : 								{
									"id" : "obj-67",
									"maxclass" : "newobj",
									"numinlets" : 1,
									"numoutlets" : 2,
									"outlettype" : [ "", "" ],
									"patching_rect" : [ 50.25, 355.000000039062456, 29.5, 22.0 ],
									"text" : "t l l"
								}

							}
, 							{
								"box" : 								{
									"id" : "obj-69",
									"maxclass" : "newobj",
									"numinlets" : 2,
									"numoutlets" : 1,
									"outlettype" : [ "" ],
									"patching_rect" : [ 50.25, 325.000000039062456, 46.0, 22.0 ],
									"text" : "pack i i"
								}

							}
, 							{
								"box" : 								{
									"id" : "obj-75",
									"maxclass" : "newobj",
									"numinlets" : 0,
									"numoutlets" : 1,
									"outlettype" : [ "" ],
									"patching_rect" : [ 495.000000023437451, 391.000000039062456, 125.0, 22.0 ],
									"text" : "r knn.reset_histogram"
								}

							}
, 							{
								"box" : 								{
									"id" : "obj-76",
									"maxclass" : "newobj",
									"numinlets" : 1,
									"numoutlets" : 1,
									"outlettype" : [ "list" ],
									"patching_rect" : [ 495.000000023437451, 497.920471230468706, 61.0, 22.0 ],
									"text" : "anal 2048"
								}

							}
, 							{
								"box" : 								{
									"id" : "obj-78",
									"linecount" : 8,
									"maxclass" : "comment",
									"numinlets" : 1,
									"numoutlets" : 0,
									"patching_rect" : [ 171.468017578125, 35.0, 317.0, 114.0 ],
									"text" : "if K > 1, use some logic to choose which marker segment to output. \n\nthe idea is to reduce repetetiveness caused from overfitting.\n\nset thresholds of how many occurrences of a segment to allow to pass before trying a different result"
								}

							}
, 							{
								"box" : 								{
									"id" : "obj-99",
									"maxclass" : "message",
									"numinlets" : 2,
									"numoutlets" : 1,
									"outlettype" : [ "" ],
									"patching_rect" : [ 713.000000023437451, 269.000000039062456, 50.0, 22.0 ],
									"text" : "max $1"
								}

							}
, 							{
								"box" : 								{
									"comment" : "",
									"id" : "obj-103",
									"index" : 1,
									"maxclass" : "inlet",
									"numinlets" : 0,
									"numoutlets" : 1,
									"outlettype" : [ "list" ],
									"patching_rect" : [ 50.25, 40.0, 30.0, 30.0 ]
								}

							}
, 							{
								"box" : 								{
									"comment" : "",
									"id" : "obj-104",
									"index" : 2,
									"maxclass" : "inlet",
									"numinlets" : 0,
									"numoutlets" : 1,
									"outlettype" : [ "list" ],
									"patching_rect" : [ 118.25, 40.0, 30.0, 30.0 ]
								}

							}
, 							{
								"box" : 								{
									"comment" : "threshold to rotate",
									"id" : "obj-105",
									"index" : 3,
									"maxclass" : "inlet",
									"numinlets" : 0,
									"numoutlets" : 1,
									"outlettype" : [ "" ],
									"patching_rect" : [ 541.000000023437451, 70.0, 30.0, 30.0 ]
								}

							}
, 							{
								"box" : 								{
									"comment" : "",
									"id" : "obj-106",
									"index" : 1,
									"maxclass" : "outlet",
									"numinlets" : 1,
									"numoutlets" : 0,
									"patching_rect" : [ 41.0, 793.92053199999998, 30.0, 30.0 ]
								}

							}
, 							{
								"box" : 								{
									"id" : "obj-9",
									"maxclass" : "message",
									"numinlets" : 2,
									"numoutlets" : 1,
									"outlettype" : [ "" ],
									"patching_rect" : [ 697.0, 344.000000039062456, 51.0, 22.0 ],
									"text" : "clear $1"
								}

							}
 ],
						"lines" : [ 							{
								"patchline" : 								{
									"destination" : [ "obj-8", 0 ],
									"source" : [ "obj-1", 0 ]
								}

							}
, 							{
								"patchline" : 								{
									"destination" : [ "obj-51", 0 ],
									"source" : [ "obj-103", 0 ]
								}

							}
, 							{
								"patchline" : 								{
									"destination" : [ "obj-86", 0 ],
									"source" : [ "obj-104", 0 ]
								}

							}
, 							{
								"patchline" : 								{
									"destination" : [ "obj-53", 1 ],
									"source" : [ "obj-105", 0 ]
								}

							}
, 							{
								"patchline" : 								{
									"destination" : [ "obj-74", 0 ],
									"source" : [ "obj-11", 0 ]
								}

							}
, 							{
								"patchline" : 								{
									"destination" : [ "obj-11", 0 ],
									"source" : [ "obj-12", 0 ]
								}

							}
, 							{
								"patchline" : 								{
									"destination" : [ "obj-106", 0 ],
									"source" : [ "obj-2", 0 ]
								}

							}
, 							{
								"patchline" : 								{
									"destination" : [ "obj-2", 0 ],
									"source" : [ "obj-4", 0 ]
								}

							}
, 							{
								"patchline" : 								{
									"destination" : [ "obj-50", 0 ],
									"source" : [ "obj-46", 0 ]
								}

							}
, 							{
								"patchline" : 								{
									"destination" : [ "obj-69", 1 ],
									"source" : [ "obj-50", 0 ]
								}

							}
, 							{
								"patchline" : 								{
									"destination" : [ "obj-52", 0 ],
									"source" : [ "obj-51", 0 ]
								}

							}
, 							{
								"patchline" : 								{
									"destination" : [ "obj-66", 1 ],
									"source" : [ "obj-51", 1 ]
								}

							}
, 							{
								"patchline" : 								{
									"destination" : [ "obj-69", 0 ],
									"source" : [ "obj-52", 0 ]
								}

							}
, 							{
								"patchline" : 								{
									"destination" : [ "obj-2", 0 ],
									"order" : 1,
									"source" : [ "obj-53", 0 ]
								}

							}
, 							{
								"patchline" : 								{
									"destination" : [ "obj-60", 0 ],
									"order" : 0,
									"source" : [ "obj-53", 0 ]
								}

							}
, 							{
								"patchline" : 								{
									"destination" : [ "obj-53", 0 ],
									"source" : [ "obj-56", 1 ]
								}

							}
, 							{
								"patchline" : 								{
									"destination" : [ "obj-76", 0 ],
									"source" : [ "obj-59", 1 ]
								}

							}
, 							{
								"patchline" : 								{
									"destination" : [ "obj-76", 0 ],
									"source" : [ "obj-59", 0 ]
								}

							}
, 							{
								"patchline" : 								{
									"destination" : [ "obj-89", 0 ],
									"source" : [ "obj-60", 0 ]
								}

							}
, 							{
								"patchline" : 								{
									"destination" : [ "obj-76", 0 ],
									"source" : [ "obj-61", 0 ]
								}

							}
, 							{
								"patchline" : 								{
									"destination" : [ "obj-50", 1 ],
									"order" : 0,
									"source" : [ "obj-65", 0 ]
								}

							}
, 							{
								"patchline" : 								{
									"destination" : [ "obj-52", 1 ],
									"order" : 1,
									"source" : [ "obj-65", 0 ]
								}

							}
, 							{
								"patchline" : 								{
									"destination" : [ "obj-52", 0 ],
									"source" : [ "obj-66", 0 ]
								}

							}
, 							{
								"patchline" : 								{
									"destination" : [ "obj-2", 1 ],
									"source" : [ "obj-67", 0 ]
								}

							}
, 							{
								"patchline" : 								{
									"destination" : [ "obj-59", 0 ],
									"source" : [ "obj-67", 1 ]
								}

							}
, 							{
								"patchline" : 								{
									"destination" : [ "obj-67", 0 ],
									"source" : [ "obj-69", 0 ]
								}

							}
, 							{
								"patchline" : 								{
									"destination" : [ "obj-65", 0 ],
									"source" : [ "obj-73", 0 ]
								}

							}
, 							{
								"patchline" : 								{
									"destination" : [ "obj-65", 0 ],
									"source" : [ "obj-74", 0 ]
								}

							}
, 							{
								"patchline" : 								{
									"destination" : [ "obj-9", 0 ],
									"source" : [ "obj-74", 2 ]
								}

							}
, 							{
								"patchline" : 								{
									"destination" : [ "obj-4", 0 ],
									"order" : 1,
									"source" : [ "obj-75", 0 ]
								}

							}
, 							{
								"patchline" : 								{
									"destination" : [ "obj-61", 0 ],
									"order" : 0,
									"source" : [ "obj-75", 0 ]
								}

							}
, 							{
								"patchline" : 								{
									"destination" : [ "obj-56", 0 ],
									"source" : [ "obj-76", 0 ]
								}

							}
, 							{
								"patchline" : 								{
									"destination" : [ "obj-12", 0 ],
									"source" : [ "obj-8", 2 ]
								}

							}
, 							{
								"patchline" : 								{
									"destination" : [ "obj-65", 0 ],
									"order" : 1,
									"source" : [ "obj-8", 1 ]
								}

							}
, 							{
								"patchline" : 								{
									"destination" : [ "obj-74", 2 ],
									"order" : 0,
									"source" : [ "obj-8", 1 ]
								}

							}
, 							{
								"patchline" : 								{
									"destination" : [ "obj-99", 0 ],
									"source" : [ "obj-8", 0 ]
								}

							}
, 							{
								"patchline" : 								{
									"destination" : [ "obj-74", 0 ],
									"source" : [ "obj-85", 0 ]
								}

							}
, 							{
								"patchline" : 								{
									"destination" : [ "obj-46", 1 ],
									"source" : [ "obj-86", 1 ]
								}

							}
, 							{
								"patchline" : 								{
									"destination" : [ "obj-50", 0 ],
									"source" : [ "obj-86", 0 ]
								}

							}
, 							{
								"patchline" : 								{
									"destination" : [ "obj-11", 1 ],
									"source" : [ "obj-89", 1 ]
								}

							}
, 							{
								"patchline" : 								{
									"destination" : [ "obj-46", 0 ],
									"order" : 0,
									"source" : [ "obj-89", 0 ]
								}

							}
, 							{
								"patchline" : 								{
									"destination" : [ "obj-66", 0 ],
									"order" : 1,
									"source" : [ "obj-89", 0 ]
								}

							}
, 							{
								"patchline" : 								{
									"destination" : [ "obj-76", 0 ],
									"source" : [ "obj-9", 0 ]
								}

							}
, 							{
								"patchline" : 								{
									"destination" : [ "obj-74", 0 ],
									"source" : [ "obj-99", 0 ]
								}

							}
 ],
						"styles" : [ 							{
								"name" : "AudioStatus_Menu",
								"default" : 								{
									"bgfillcolor" : 									{
										"type" : "color",
										"color" : [ 0.294118, 0.313726, 0.337255, 1 ],
										"color1" : [ 0.454902, 0.462745, 0.482353, 0.0 ],
										"color2" : [ 0.290196, 0.309804, 0.301961, 1.0 ],
										"angle" : 270.0,
										"proportion" : 0.39,
										"autogradient" : 0
									}

								}
,
								"parentstyle" : "",
								"multi" : 0
							}
, 							{
								"name" : "Jamoma_highlighted_orange",
								"default" : 								{
									"accentcolor" : [ 1.0, 0.5, 0.0, 1.0 ]
								}
,
								"parentstyle" : "",
								"multi" : 0
							}
 ]
					}
,
					"patching_rect" : [ 638.11669921875, 573.999999960937544, 178.0, 22.0 ],
					"saved_object_attributes" : 					{
						"description" : "",
						"digest" : "",
						"globalpatchername" : "",
						"tags" : ""
					}
,
					"text" : "p rotate_k_by_repeat_threshold"
				}

			}
, 			{
				"box" : 				{
					"id" : "obj-31",
					"maxclass" : "newobj",
					"numinlets" : 1,
					"numoutlets" : 1,
					"outlettype" : [ "" ],
					"patching_rect" : [ 848.584716796875, 543.67034912109375, 77.0, 22.0 ],
					"text" : "loadmess 20"
				}

			}
, 			{
				"box" : 				{
					"id" : "obj-95",
					"linecount" : 2,
					"maxclass" : "comment",
					"numinlets" : 1,
					"numoutlets" : 0,
					"patching_rect" : [ 796.584716796875, 508.67034912109375, 137.0, 33.0 ],
					"text" : "threshold to rotate KNN selection"
				}

			}
, 			{
				"box" : 				{
					"id" : "obj-32",
					"maxclass" : "number",
					"numinlets" : 1,
					"numoutlets" : 2,
					"outlettype" : [ "", "bang" ],
					"parameter_enable" : 0,
					"patching_rect" : [ 796.584716796875, 543.67034912109375, 50.0, 22.0 ]
				}

			}
, 			{
				"box" : 				{
					"id" : "obj-29",
					"maxclass" : "newobj",
					"numinlets" : 1,
					"numoutlets" : 1,
					"outlettype" : [ "" ],
					"patching_rect" : [ 1014.11669921875, 346.099976000000026, 70.0, 22.0 ],
					"text" : "loadmess 3"
				}

			}
, 			{
				"box" : 				{
					"bgcolor" : [ 0.156862745098039, 0.156862745098039, 0.156862745098039, 1.0 ],
					"id" : "obj-25",
					"maxclass" : "number",
					"numinlets" : 1,
					"numoutlets" : 2,
					"outlettype" : [ "", "bang" ],
					"parameter_enable" : 0,
					"patching_rect" : [ 962.11669921875, 346.099976000000026, 50.0, 22.0 ],
					"presentation" : 1,
					"presentation_rect" : [ 696.88330078125, 84.099976000000026, 50.0, 22.0 ]
				}

			}
, 			{
				"box" : 				{
					"bgcolor" : [ 0.156862745098039, 0.156862745098039, 0.156862745098039, 1.0 ],
					"fontsize" : 14.0,
					"id" : "obj-27",
					"maxclass" : "comment",
					"numinlets" : 1,
					"numoutlets" : 0,
					"patching_rect" : [ 883.11669921875, 346.099976000000026, 73.0, 22.0 ],
					"presentation" : 1,
					"presentation_rect" : [ 600.0, 84.099976000000026, 150.0, 22.0 ],
					"text" : "k",
					"textcolor" : [ 0.996078431372549, 0.996078431372549, 0.996078431372549, 1.0 ]
				}

			}
, 			{
				"box" : 				{
					"id" : "obj-11",
					"maxclass" : "newobj",
					"numinlets" : 1,
					"numoutlets" : 1,
					"outlettype" : [ "" ],
					"patching_rect" : [ 1171.0, 192.5, 70.0, 22.0 ],
					"text" : "loadmess 1"
				}

			}
, 			{
				"box" : 				{
					"attr" : "k",
					"id" : "obj-23",
					"maxclass" : "attrui",
					"numinlets" : 1,
					"numoutlets" : 1,
					"outlettype" : [ "" ],
					"patching_rect" : [ 682.11669921875, 346.099976000000026, 200.960205078125, 22.0 ]
				}

			}
, 			{
				"box" : 				{
					"attr" : "radius",
					"id" : "obj-5",
					"maxclass" : "attrui",
					"numinlets" : 1,
					"numoutlets" : 1,
					"outlettype" : [ "" ],
					"patching_rect" : [ 682.11669921875, 312.0, 200.960205078125, 22.0 ],
					"presentation" : 1,
					"presentation_rect" : [ 600.0, 52.423095703125, 150.0, 22.0 ]
				}

			}
, 			{
				"box" : 				{
					"fontface" : 0,
					"id" : "obj-19",
					"maxclass" : "comment",
					"numinlets" : 1,
					"numoutlets" : 0,
					"patching_rect" : [ 435.923095703125, 2.423095703125, 65.0, 20.0 ],
					"presentation" : 1,
					"presentation_rect" : [ 6.923095703125, 30.423095703125, 46.0, 20.0 ],
					"text" : "scaling",
					"textcolor" : [ 0.996078431606293, 0.972549021244049, 0.972549021244049, 1.0 ]
				}

			}
, 			{
				"box" : 				{
					"id" : "obj-48",
					"maxclass" : "newobj",
					"numinlets" : 0,
					"numoutlets" : 1,
					"outlettype" : [ "" ],
					"patching_rect" : [ 479.0, 231.5, 95.0, 22.0 ],
					"text" : "r knn.randomize"
				}

			}
, 			{
				"box" : 				{
					"fontface" : 0,
					"id" : "obj-47",
					"maxclass" : "comment",
					"numinlets" : 1,
					"numoutlets" : 0,
					"patching_rect" : [ 388.5, 192.5, 65.0, 20.0 ],
					"presentation" : 1,
					"presentation_rect" : [ 397.923095703125, 22.423095703125, 65.0, 20.0 ],
					"text" : "randomize",
					"textcolor" : [ 0.996078431606293, 0.972549021244049, 0.972549021244049, 1.0 ]
				}

			}
, 			{
				"box" : 				{
					"id" : "obj-44",
					"maxclass" : "toggle",
					"numinlets" : 1,
					"numoutlets" : 1,
					"outlettype" : [ "int" ],
					"parameter_enable" : 0,
					"patching_rect" : [ 484.0, 257.0, 24.0, 24.0 ],
					"presentation" : 1,
					"presentation_rect" : [ 375.0, 20.423095703125, 24.0, 24.0 ]
				}

			}
, 			{
				"box" : 				{
					"id" : "obj-40",
					"maxclass" : "newobj",
					"numinlets" : 2,
					"numoutlets" : 1,
					"outlettype" : [ "bang" ],
					"patching_rect" : [ 484.0, 296.5, 69.0, 22.0 ],
					"text" : "qmetro 400"
				}

			}
, 			{
				"box" : 				{
					"id" : "obj-33",
					"maxclass" : "newobj",
					"numinlets" : 3,
					"numoutlets" : 1,
					"outlettype" : [ "" ],
					"patcher" : 					{
						"fileversion" : 1,
						"appversion" : 						{
							"major" : 8,
							"minor" : 1,
							"revision" : 5,
							"architecture" : "x64",
							"modernui" : 1
						}
,
						"classnamespace" : "box",
						"rect" : [ 59.0, 104.0, 640.0, 480.0 ],
						"bglocked" : 0,
						"openinpresentation" : 0,
						"default_fontsize" : 12.0,
						"default_fontface" : 0,
						"default_fontname" : "Arial",
						"gridonopen" : 1,
						"gridsize" : [ 15.0, 15.0 ],
						"gridsnaponopen" : 1,
						"objectsnaponopen" : 1,
						"statusbarvisible" : 2,
						"toolbarvisible" : 1,
						"lefttoolbarpinned" : 0,
						"toptoolbarpinned" : 0,
						"righttoolbarpinned" : 0,
						"bottomtoolbarpinned" : 0,
						"toolbars_unpinned_last_save" : 0,
						"tallnewobj" : 0,
						"boxanimatetime" : 200,
						"enablehscroll" : 1,
						"enablevscroll" : 1,
						"devicewidth" : 0.0,
						"description" : "",
						"digest" : "",
						"tags" : "",
						"style" : "",
						"subpatcher_template" : "",
						"assistshowspatchername" : 0,
						"boxes" : [ 							{
								"box" : 								{
									"id" : "obj-23",
									"maxclass" : "newobj",
									"numinlets" : 1,
									"numoutlets" : 1,
									"outlettype" : [ "" ],
									"patching_rect" : [ 150.0, 32.0, 70.0, 22.0 ],
									"text" : "loadmess 1"
								}

							}
, 							{
								"box" : 								{
									"id" : "obj-21",
									"maxclass" : "newobj",
									"numinlets" : 2,
									"numoutlets" : 1,
									"outlettype" : [ "int" ],
									"patching_rect" : [ 286.0, 88.0, 29.5, 22.0 ],
									"text" : "+ 1"
								}

							}
, 							{
								"box" : 								{
									"id" : "obj-20",
									"maxclass" : "newobj",
									"numinlets" : 2,
									"numoutlets" : 1,
									"outlettype" : [ "int" ],
									"patching_rect" : [ 286.0, 61.0, 29.5, 22.0 ],
									"text" : "* -1"
								}

							}
, 							{
								"box" : 								{
									"comment" : "",
									"id" : "obj-15",
									"index" : 3,
									"maxclass" : "inlet",
									"numinlets" : 0,
									"numoutlets" : 1,
									"outlettype" : [ "int" ],
									"patching_rect" : [ 286.0, 21.0, 30.0, 30.0 ]
								}

							}
, 							{
								"box" : 								{
									"id" : "obj-14",
									"maxclass" : "newobj",
									"numinlets" : 2,
									"numoutlets" : 1,
									"outlettype" : [ "" ],
									"patching_rect" : [ 97.0, 80.04998779296875, 32.0, 22.0 ],
									"text" : "gate"
								}

							}
, 							{
								"box" : 								{
									"comment" : "",
									"id" : "obj-5",
									"index" : 2,
									"maxclass" : "inlet",
									"numinlets" : 0,
									"numoutlets" : 1,
									"outlettype" : [ "" ],
									"patching_rect" : [ 110.0, 28.0, 30.0, 30.0 ]
								}

							}
, 							{
								"box" : 								{
									"id" : "obj-4",
									"maxclass" : "newobj",
									"numinlets" : 5,
									"numoutlets" : 1,
									"outlettype" : [ "" ],
									"patching_rect" : [ 189.0, 302.0, 105.0, 22.0 ],
									"text" : "zmap 0. 1. 0.8 1.2"
								}

							}
, 							{
								"box" : 								{
									"id" : "obj-3",
									"maxclass" : "newobj",
									"numinlets" : 2,
									"numoutlets" : 1,
									"outlettype" : [ "float" ],
									"patching_rect" : [ 192.0, 189.0, 39.0, 22.0 ],
									"text" : "/ 100."
								}

							}
, 							{
								"box" : 								{
									"id" : "obj-2",
									"maxclass" : "newobj",
									"numinlets" : 1,
									"numoutlets" : 2,
									"outlettype" : [ "bang", "bang" ],
									"patching_rect" : [ 50.0, 80.04998779296875, 32.0, 22.0 ],
									"text" : "t b b"
								}

							}
, 							{
								"box" : 								{
									"comment" : "",
									"id" : "obj-1",
									"index" : 1,
									"maxclass" : "outlet",
									"numinlets" : 1,
									"numoutlets" : 0,
									"patching_rect" : [ 117.0, 393.0, 30.0, 30.0 ]
								}

							}
, 							{
								"box" : 								{
									"id" : "obj-26",
									"maxclass" : "newobj",
									"numinlets" : 2,
									"numoutlets" : 1,
									"outlettype" : [ "" ],
									"patching_rect" : [ 122.25, 350.5, 86.0, 22.0 ],
									"text" : "vexpr $f1 * $f2"
								}

							}
, 							{
								"box" : 								{
									"id" : "obj-22",
									"maxclass" : "newobj",
									"numinlets" : 2,
									"numoutlets" : 2,
									"outlettype" : [ "", "" ],
									"patching_rect" : [ 122.25, 279.5, 38.0, 22.0 ],
									"text" : "zl reg"
								}

							}
, 							{
								"box" : 								{
									"id" : "obj-19",
									"maxclass" : "newobj",
									"numinlets" : 2,
									"numoutlets" : 1,
									"outlettype" : [ "int" ],
									"patching_rect" : [ 192.0, 151.5, 73.0, 22.0 ],
									"text" : "random 100"
								}

							}
, 							{
								"box" : 								{
									"id" : "obj-18",
									"maxclass" : "newobj",
									"numinlets" : 2,
									"numoutlets" : 3,
									"outlettype" : [ "bang", "bang", "int" ],
									"patching_rect" : [ 192.0, 120.0999755859375, 41.0, 22.0 ],
									"text" : "uzi 13"
								}

							}
, 							{
								"box" : 								{
									"id" : "obj-17",
									"maxclass" : "newobj",
									"numinlets" : 2,
									"numoutlets" : 2,
									"outlettype" : [ "", "" ],
									"patching_rect" : [ 192.0, 249.0, 51.0, 22.0 ],
									"text" : "zl group"
								}

							}
, 							{
								"box" : 								{
									"comment" : "",
									"id" : "obj-27",
									"index" : 1,
									"maxclass" : "inlet",
									"numinlets" : 0,
									"numoutlets" : 1,
									"outlettype" : [ "bang" ],
									"patching_rect" : [ 50.0, 28.0, 30.0, 30.0 ]
								}

							}
 ],
						"lines" : [ 							{
								"patchline" : 								{
									"destination" : [ "obj-22", 1 ],
									"source" : [ "obj-14", 0 ]
								}

							}
, 							{
								"patchline" : 								{
									"destination" : [ "obj-20", 0 ],
									"source" : [ "obj-15", 0 ]
								}

							}
, 							{
								"patchline" : 								{
									"destination" : [ "obj-4", 0 ],
									"source" : [ "obj-17", 0 ]
								}

							}
, 							{
								"patchline" : 								{
									"destination" : [ "obj-17", 0 ],
									"source" : [ "obj-18", 1 ]
								}

							}
, 							{
								"patchline" : 								{
									"destination" : [ "obj-19", 0 ],
									"source" : [ "obj-18", 0 ]
								}

							}
, 							{
								"patchline" : 								{
									"destination" : [ "obj-3", 0 ],
									"source" : [ "obj-19", 0 ]
								}

							}
, 							{
								"patchline" : 								{
									"destination" : [ "obj-18", 0 ],
									"source" : [ "obj-2", 1 ]
								}

							}
, 							{
								"patchline" : 								{
									"destination" : [ "obj-22", 0 ],
									"source" : [ "obj-2", 0 ]
								}

							}
, 							{
								"patchline" : 								{
									"destination" : [ "obj-21", 0 ],
									"source" : [ "obj-20", 0 ]
								}

							}
, 							{
								"patchline" : 								{
									"destination" : [ "obj-14", 0 ],
									"source" : [ "obj-21", 0 ]
								}

							}
, 							{
								"patchline" : 								{
									"destination" : [ "obj-26", 0 ],
									"source" : [ "obj-22", 0 ]
								}

							}
, 							{
								"patchline" : 								{
									"destination" : [ "obj-14", 0 ],
									"source" : [ "obj-23", 0 ]
								}

							}
, 							{
								"patchline" : 								{
									"destination" : [ "obj-1", 0 ],
									"source" : [ "obj-26", 0 ]
								}

							}
, 							{
								"patchline" : 								{
									"destination" : [ "obj-2", 0 ],
									"source" : [ "obj-27", 0 ]
								}

							}
, 							{
								"patchline" : 								{
									"destination" : [ "obj-17", 0 ],
									"source" : [ "obj-3", 0 ]
								}

							}
, 							{
								"patchline" : 								{
									"destination" : [ "obj-26", 1 ],
									"source" : [ "obj-4", 0 ]
								}

							}
, 							{
								"patchline" : 								{
									"destination" : [ "obj-14", 1 ],
									"source" : [ "obj-5", 0 ]
								}

							}
 ]
					}
,
					"patching_rect" : [ 217.076904296875, 317.5, 75.0, 22.0 ],
					"saved_object_attributes" : 					{
						"description" : "",
						"digest" : "",
						"globalpatchername" : "",
						"tags" : ""
					}
,
					"text" : "p rand_mfcc"
				}

			}
, 			{
				"box" : 				{
					"id" : "obj-34",
					"maxclass" : "button",
					"numinlets" : 1,
					"numoutlets" : 1,
					"outlettype" : [ "bang" ],
					"parameter_enable" : 0,
					"patching_rect" : [ 217.076904296875, 284.5, 24.0, 24.0 ]
				}

			}
, 			{
				"box" : 				{
					"id" : "obj-30",
					"maxclass" : "newobj",
					"numinlets" : 3,
					"numoutlets" : 1,
					"outlettype" : [ "" ],
					"patcher" : 					{
						"fileversion" : 1,
						"appversion" : 						{
							"major" : 8,
							"minor" : 1,
							"revision" : 5,
							"architecture" : "x64",
							"modernui" : 1
						}
,
						"classnamespace" : "box",
						"rect" : [ 34.0, 79.0, 1612.0, 901.0 ],
						"bglocked" : 0,
						"openinpresentation" : 0,
						"default_fontsize" : 12.0,
						"default_fontface" : 0,
						"default_fontname" : "Arial",
						"gridonopen" : 1,
						"gridsize" : [ 15.0, 15.0 ],
						"gridsnaponopen" : 1,
						"objectsnaponopen" : 1,
						"statusbarvisible" : 2,
						"toolbarvisible" : 1,
						"lefttoolbarpinned" : 0,
						"toptoolbarpinned" : 0,
						"righttoolbarpinned" : 0,
						"bottomtoolbarpinned" : 0,
						"toolbars_unpinned_last_save" : 0,
						"tallnewobj" : 0,
						"boxanimatetime" : 200,
						"enablehscroll" : 1,
						"enablevscroll" : 1,
						"devicewidth" : 0.0,
						"description" : "",
						"digest" : "",
						"tags" : "",
						"style" : "",
						"subpatcher_template" : "",
						"assistshowspatchername" : 0,
						"boxes" : [ 							{
								"box" : 								{
									"id" : "obj-8",
									"maxclass" : "newobj",
									"numinlets" : 1,
									"numoutlets" : 1,
									"outlettype" : [ "" ],
									"patching_rect" : [ 106.25, -6.0, 70.0, 22.0 ],
									"text" : "loadmess 1"
								}

							}
, 							{
								"box" : 								{
									"id" : "obj-21",
									"maxclass" : "newobj",
									"numinlets" : 2,
									"numoutlets" : 1,
									"outlettype" : [ "int" ],
									"patching_rect" : [ 213.5, 73.0, 29.5, 22.0 ],
									"text" : "+ 1"
								}

							}
, 							{
								"box" : 								{
									"id" : "obj-20",
									"maxclass" : "newobj",
									"numinlets" : 2,
									"numoutlets" : 1,
									"outlettype" : [ "int" ],
									"patching_rect" : [ 213.5, 46.0, 29.5, 22.0 ],
									"text" : "* -1"
								}

							}
, 							{
								"box" : 								{
									"comment" : "",
									"id" : "obj-15",
									"index" : 3,
									"maxclass" : "inlet",
									"numinlets" : 0,
									"numoutlets" : 1,
									"outlettype" : [ "int" ],
									"patching_rect" : [ 213.5, 6.0, 30.0, 30.0 ]
								}

							}
, 							{
								"box" : 								{
									"id" : "obj-14",
									"maxclass" : "newobj",
									"numinlets" : 2,
									"numoutlets" : 1,
									"outlettype" : [ "" ],
									"patching_rect" : [ 104.0, 75.04998779296875, 32.0, 22.0 ],
									"text" : "gate"
								}

							}
, 							{
								"box" : 								{
									"comment" : "",
									"id" : "obj-5",
									"index" : 2,
									"maxclass" : "inlet",
									"numinlets" : 0,
									"numoutlets" : 1,
									"outlettype" : [ "" ],
									"patching_rect" : [ 97.0, 28.0, 30.0, 30.0 ]
								}

							}
, 							{
								"box" : 								{
									"id" : "obj-4",
									"maxclass" : "newobj",
									"numinlets" : 5,
									"numoutlets" : 1,
									"outlettype" : [ "" ],
									"patching_rect" : [ 189.0, 302.0, 118.0, 22.0 ],
									"text" : "zmap 0. 1. 0.92 1.05"
								}

							}
, 							{
								"box" : 								{
									"id" : "obj-3",
									"maxclass" : "newobj",
									"numinlets" : 2,
									"numoutlets" : 1,
									"outlettype" : [ "float" ],
									"patching_rect" : [ 192.0, 189.0, 39.0, 22.0 ],
									"text" : "/ 100."
								}

							}
, 							{
								"box" : 								{
									"id" : "obj-2",
									"maxclass" : "newobj",
									"numinlets" : 1,
									"numoutlets" : 2,
									"outlettype" : [ "bang", "bang" ],
									"patching_rect" : [ 50.0, 80.04998779296875, 32.0, 22.0 ],
									"text" : "t b b"
								}

							}
, 							{
								"box" : 								{
									"comment" : "",
									"id" : "obj-1",
									"index" : 1,
									"maxclass" : "outlet",
									"numinlets" : 1,
									"numoutlets" : 0,
									"patching_rect" : [ 117.0, 393.0, 30.0, 30.0 ]
								}

							}
, 							{
								"box" : 								{
									"id" : "obj-26",
									"maxclass" : "newobj",
									"numinlets" : 2,
									"numoutlets" : 1,
									"outlettype" : [ "" ],
									"patching_rect" : [ 122.25, 350.5, 86.0, 22.0 ],
									"text" : "vexpr $f1 * $f2"
								}

							}
, 							{
								"box" : 								{
									"id" : "obj-22",
									"maxclass" : "newobj",
									"numinlets" : 2,
									"numoutlets" : 2,
									"outlettype" : [ "", "" ],
									"patching_rect" : [ 122.25, 151.5, 38.0, 22.0 ],
									"text" : "zl reg"
								}

							}
, 							{
								"box" : 								{
									"id" : "obj-19",
									"maxclass" : "newobj",
									"numinlets" : 2,
									"numoutlets" : 1,
									"outlettype" : [ "int" ],
									"patching_rect" : [ 192.0, 151.5, 73.0, 22.0 ],
									"text" : "random 100"
								}

							}
, 							{
								"box" : 								{
									"id" : "obj-18",
									"maxclass" : "newobj",
									"numinlets" : 2,
									"numoutlets" : 3,
									"outlettype" : [ "bang", "bang", "int" ],
									"patching_rect" : [ 192.0, 123.0999755859375, 246.0, 22.0 ],
									"text" : "uzi 12"
								}

							}
, 							{
								"box" : 								{
									"id" : "obj-17",
									"maxclass" : "newobj",
									"numinlets" : 2,
									"numoutlets" : 2,
									"outlettype" : [ "", "" ],
									"patching_rect" : [ 192.0, 249.0, 51.0, 22.0 ],
									"text" : "zl group"
								}

							}
, 							{
								"box" : 								{
									"comment" : "",
									"id" : "obj-27",
									"index" : 1,
									"maxclass" : "inlet",
									"numinlets" : 0,
									"numoutlets" : 1,
									"outlettype" : [ "bang" ],
									"patching_rect" : [ 50.0, 28.0, 30.0, 30.0 ]
								}

							}
 ],
						"lines" : [ 							{
								"patchline" : 								{
									"destination" : [ "obj-22", 1 ],
									"source" : [ "obj-14", 0 ]
								}

							}
, 							{
								"patchline" : 								{
									"destination" : [ "obj-20", 0 ],
									"source" : [ "obj-15", 0 ]
								}

							}
, 							{
								"patchline" : 								{
									"destination" : [ "obj-4", 0 ],
									"source" : [ "obj-17", 0 ]
								}

							}
, 							{
								"patchline" : 								{
									"destination" : [ "obj-17", 0 ],
									"source" : [ "obj-18", 1 ]
								}

							}
, 							{
								"patchline" : 								{
									"destination" : [ "obj-19", 0 ],
									"source" : [ "obj-18", 0 ]
								}

							}
, 							{
								"patchline" : 								{
									"destination" : [ "obj-3", 0 ],
									"source" : [ "obj-19", 0 ]
								}

							}
, 							{
								"patchline" : 								{
									"destination" : [ "obj-18", 0 ],
									"source" : [ "obj-2", 1 ]
								}

							}
, 							{
								"patchline" : 								{
									"destination" : [ "obj-22", 0 ],
									"source" : [ "obj-2", 0 ]
								}

							}
, 							{
								"patchline" : 								{
									"destination" : [ "obj-21", 0 ],
									"source" : [ "obj-20", 0 ]
								}

							}
, 							{
								"patchline" : 								{
									"destination" : [ "obj-14", 0 ],
									"source" : [ "obj-21", 0 ]
								}

							}
, 							{
								"patchline" : 								{
									"destination" : [ "obj-26", 0 ],
									"source" : [ "obj-22", 0 ]
								}

							}
, 							{
								"patchline" : 								{
									"destination" : [ "obj-1", 0 ],
									"source" : [ "obj-26", 0 ]
								}

							}
, 							{
								"patchline" : 								{
									"destination" : [ "obj-2", 0 ],
									"source" : [ "obj-27", 0 ]
								}

							}
, 							{
								"patchline" : 								{
									"destination" : [ "obj-17", 0 ],
									"source" : [ "obj-3", 0 ]
								}

							}
, 							{
								"patchline" : 								{
									"destination" : [ "obj-26", 1 ],
									"source" : [ "obj-4", 0 ]
								}

							}
, 							{
								"patchline" : 								{
									"destination" : [ "obj-14", 1 ],
									"source" : [ "obj-5", 0 ]
								}

							}
, 							{
								"patchline" : 								{
									"destination" : [ "obj-14", 0 ],
									"source" : [ "obj-8", 0 ]
								}

							}
 ]
					}
,
					"patching_rect" : [ 382.75, 312.0, 89.0, 22.0 ],
					"saved_object_attributes" : 					{
						"description" : "",
						"digest" : "",
						"globalpatchername" : "",
						"tags" : ""
					}
,
					"text" : "p rand_chroma"
				}

			}
, 			{
				"box" : 				{
					"id" : "obj-21",
					"maxclass" : "button",
					"numinlets" : 1,
					"numoutlets" : 1,
					"outlettype" : [ "bang" ],
					"parameter_enable" : 0,
					"patching_rect" : [ 382.75, 284.5, 24.0, 24.0 ]
				}

			}
, 			{
				"box" : 				{
					"id" : "obj-13",
					"maxclass" : "newobj",
					"numinlets" : 1,
					"numoutlets" : 1,
					"outlettype" : [ "" ],
					"patching_rect" : [ 818.0, 186.0, 94.0, 22.0 ],
					"text" : "prepend include"
				}

			}
, 			{
				"box" : 				{
					"id" : "obj-35",
					"maxclass" : "newobj",
					"numinlets" : 0,
					"numoutlets" : 1,
					"outlettype" : [ "" ],
					"patching_rect" : [ 818.0, 159.5, 83.0, 22.0 ],
					"text" : "r knn.included"
				}

			}
, 			{
				"box" : 				{
					"id" : "obj-4",
					"maxclass" : "newobj",
					"numinlets" : 0,
					"numoutlets" : 1,
					"outlettype" : [ "" ],
					"patching_rect" : [ 238.076904296875, 216.5, 72.0, 22.0 ],
					"text" : "r knn.preset"
				}

			}
, 			{
				"box" : 				{
					"fontface" : 0,
					"id" : "obj-15",
					"maxclass" : "comment",
					"numinlets" : 1,
					"numoutlets" : 0,
					"patching_rect" : [ 403.923095703125, 1.923065185546875, 46.0, 20.0 ],
					"text" : "scaling",
					"textcolor" : [ 0.996078431606293, 0.972549021244049, 0.972549021244049, 1.0 ]
				}

			}
, 			{
				"box" : 				{
					"id" : "obj-8",
					"maxclass" : "newobj",
					"numinlets" : 1,
					"numoutlets" : 1,
					"outlettype" : [ "" ],
					"patching_rect" : [ 1051.0, 231.5, 93.0, 22.0 ],
					"text" : "prepend scaling"
				}

			}
, 			{
				"box" : 				{
					"id" : "obj-6",
					"items" : [ "off", ",", "minmax", ",", "meanstddev" ],
					"maxclass" : "umenu",
					"numinlets" : 1,
					"numoutlets" : 3,
					"outlettype" : [ "int", "", "" ],
					"parameter_enable" : 0,
					"patching_rect" : [ 1051.0, 200.0, 100.0, 22.0 ],
					"presentation" : 1,
					"presentation_rect" : [ 54.923095703125, 28.423095703125, 99.0, 22.0 ]
				}

			}
, 			{
				"box" : 				{
					"comment" : "",
					"id" : "obj-2",
					"index" : 0,
					"maxclass" : "inlet",
					"numinlets" : 0,
					"numoutlets" : 1,
					"outlettype" : [ "" ],
					"patching_rect" : [ 691.11669921875, 27.923095703125, 30.0, 30.0 ]
				}

			}
, 			{
				"box" : 				{
					"fontface" : 0,
					"id" : "obj-3",
					"linecount" : 2,
					"maxclass" : "comment",
					"numinlets" : 1,
					"numoutlets" : 0,
					"patching_rect" : [ 13.47222900390625, 518.0999755859375, 215.0, 33.0 ],
					"presentation" : 1,
					"presentation_rect" : [ 95.2115478515625, 0.423095703125, 307.0, 20.0 ],
					"text" : " set the importance of each descriptor for KNN matching",
					"textcolor" : [ 0.996078431606293, 0.972549021244049, 0.972549021244049, 1.0 ]
				}

			}
, 			{
				"box" : 				{
					"comment" : "list of [markerindex bufferindex distance]",
					"id" : "obj-42",
					"index" : 0,
					"maxclass" : "outlet",
					"numinlets" : 1,
					"numoutlets" : 0,
					"patching_rect" : [ 638.11669921875, 648.67034912109375, 30.0, 30.0 ]
				}

			}
, 			{
				"box" : 				{
					"bgcolor" : [ 0.301961, 0.301961, 0.301961, 0.0 ],
					"bgcolor2" : [ 0.301961, 0.301961, 0.301961, 0.0 ],
					"bgfillcolor_angle" : 270.0,
					"bgfillcolor_autogradient" : 0.0,
					"bgfillcolor_color" : [ 0.588235294117647, 0.576470588235294, 0.576470588235294, 0.39 ],
					"bgfillcolor_color1" : [ 0.301961, 0.301961, 0.301961, 0.0 ],
					"bgfillcolor_color2" : [ 0.2, 0.2, 0.2, 1.0 ],
					"bgfillcolor_proportion" : 0.5,
					"bgfillcolor_type" : "color",
					"gradient" : 1,
					"id" : "obj-39",
					"maxclass" : "message",
					"numinlets" : 2,
					"numoutlets" : 1,
					"outlettype" : [ "" ],
					"patching_rect" : [ 984.0, 274.5, 45.0, 22.0 ],
					"presentation" : 1,
					"presentation_rect" : [ 528.2115478515625, 23.423095703125, 70.0, 22.0 ],
					"text" : "update"
				}

			}
, 			{
				"box" : 				{
					"id" : "obj-41",
					"maxclass" : "newobj",
					"numinlets" : 1,
					"numoutlets" : 2,
					"outlettype" : [ "", "update" ],
					"patching_rect" : [ 984.0, 304.0, 117.0, 22.0 ],
					"text" : "t getincluded update"
				}

			}
, 			{
				"box" : 				{
					"id" : "obj-38",
					"maxclass" : "newobj",
					"numinlets" : 1,
					"numoutlets" : 1,
					"outlettype" : [ "" ],
					"patching_rect" : [ 13.47222900390625, 476.0, 97.0, 22.0 ],
					"text" : "prepend weights"
				}

			}
, 			{
				"box" : 				{
					"comment" : "",
					"id" : "obj-37",
					"index" : 0,
					"maxclass" : "inlet",
					"numinlets" : 0,
					"numoutlets" : 1,
					"outlettype" : [ "" ],
					"patching_rect" : [ 636.11669921875, 27.923095703125, 30.0, 30.0 ]
				}

			}
, 			{
				"box" : 				{
					"id" : "obj-36",
					"maxclass" : "newobj",
					"numinlets" : 1,
					"numoutlets" : 1,
					"outlettype" : [ "" ],
					"patcher" : 					{
						"fileversion" : 1,
						"appversion" : 						{
							"major" : 8,
							"minor" : 1,
							"revision" : 5,
							"architecture" : "x64",
							"modernui" : 1
						}
,
						"classnamespace" : "box",
						"rect" : [ 59.0, 104.0, 640.0, 480.0 ],
						"bglocked" : 0,
						"openinpresentation" : 0,
						"default_fontsize" : 12.0,
						"default_fontface" : 0,
						"default_fontname" : "Arial",
						"gridonopen" : 1,
						"gridsize" : [ 15.0, 15.0 ],
						"gridsnaponopen" : 1,
						"objectsnaponopen" : 1,
						"statusbarvisible" : 2,
						"toolbarvisible" : 1,
						"lefttoolbarpinned" : 0,
						"toptoolbarpinned" : 0,
						"righttoolbarpinned" : 0,
						"bottomtoolbarpinned" : 0,
						"toolbars_unpinned_last_save" : 0,
						"tallnewobj" : 0,
						"boxanimatetime" : 200,
						"enablehscroll" : 1,
						"enablevscroll" : 1,
						"devicewidth" : 0.0,
						"description" : "",
						"digest" : "",
						"tags" : "",
						"style" : "",
						"subpatcher_template" : "",
						"assistshowspatchername" : 0,
						"boxes" : [ 							{
								"box" : 								{
									"comment" : "",
									"id" : "obj-1",
									"index" : 1,
									"maxclass" : "outlet",
									"numinlets" : 1,
									"numoutlets" : 0,
									"patching_rect" : [ 65.5, 470.0, 30.0, 30.0 ]
								}

							}
, 							{
								"box" : 								{
									"id" : "obj-21",
									"maxclass" : "newobj",
									"numinlets" : 0,
									"numoutlets" : 1,
									"outlettype" : [ "" ],
									"patching_rect" : [ 50.0, 100.0, 157.0, 22.0 ],
									"text" : "r player.corpus.afterAnalyze"
								}

							}
, 							{
								"box" : 								{
									"id" : "obj-24",
									"maxclass" : "newobj",
									"numinlets" : 1,
									"numoutlets" : 1,
									"outlettype" : [ "bang" ],
									"patching_rect" : [ 50.0, 127.5, 22.0, 22.0 ],
									"text" : "t b"
								}

							}
, 							{
								"box" : 								{
									"id" : "obj-27",
									"maxclass" : "newobj",
									"numinlets" : 1,
									"numoutlets" : 0,
									"patching_rect" : [ 50.0, 156.0, 125.0, 22.0 ],
									"text" : "s update_knn_buffers"
								}

							}
, 							{
								"box" : 								{
									"id" : "obj-32",
									"maxclass" : "newobj",
									"numinlets" : 0,
									"numoutlets" : 1,
									"outlettype" : [ "" ],
									"patching_rect" : [ 217.16650390625, 141.5, 122.0, 22.0 ],
									"text" : "r update_knn_buffers"
								}

							}
, 							{
								"box" : 								{
									"id" : "obj-106",
									"maxclass" : "newobj",
									"numinlets" : 1,
									"numoutlets" : 1,
									"outlettype" : [ "" ],
									"patching_rect" : [ 72.0, 196.0, 81.0, 22.0 ],
									"text" : "prepend refer"
								}

							}
, 							{
								"box" : 								{
									"id" : "obj-8",
									"maxclass" : "button",
									"numinlets" : 1,
									"numoutlets" : 1,
									"outlettype" : [ "bang" ],
									"parameter_enable" : 0,
									"patching_rect" : [ 183.0, 180.0, 24.0, 24.0 ]
								}

							}
, 							{
								"box" : 								{
									"id" : "obj-13",
									"maxclass" : "newobj",
									"numinlets" : 1,
									"numoutlets" : 1,
									"outlettype" : [ "" ],
									"patching_rect" : [ 72.0, 228.0, 39.0, 22.0 ],
									"saved_object_attributes" : 									{
										"embed" : 0,
										"externalfiles" : 1,
										"resamplefiles" : 0,
										"savegui" : 0
									}
,
									"text" : "mubu"
								}

							}
, 							{
								"box" : 								{
									"id" : "obj-17",
									"maxclass" : "newobj",
									"numinlets" : 1,
									"numoutlets" : 1,
									"outlettype" : [ "bang" ],
									"patching_rect" : [ 217.16650390625, 180.0, 22.0, 22.0 ],
									"text" : "t b"
								}

							}
, 							{
								"box" : 								{
									"id" : "obj-2",
									"linecount" : 3,
									"maxclass" : "comment",
									"numinlets" : 1,
									"numoutlets" : 0,
									"patching_rect" : [ 274.5, 244.0, 150.0, 47.0 ],
									"text" : "TODO: \ntest is there a bug where choosing all buffers fails?"
								}

							}
, 							{
								"box" : 								{
									"id" : "obj-19",
									"maxclass" : "newobj",
									"numinlets" : 1,
									"numoutlets" : 1,
									"outlettype" : [ "" ],
									"patching_rect" : [ 65.5, 429.00006103515625, 94.0, 22.0 ],
									"text" : "prepend include"
								}

							}
, 							{
								"box" : 								{
									"id" : "obj-20",
									"maxclass" : "newobj",
									"numinlets" : 2,
									"numoutlets" : 2,
									"outlettype" : [ "", "" ],
									"patching_rect" : [ 65.5, 399.0, 51.0, 22.0 ],
									"text" : "zl group"
								}

							}
, 							{
								"box" : 								{
									"id" : "obj-22",
									"maxclass" : "newobj",
									"numinlets" : 1,
									"numoutlets" : 2,
									"outlettype" : [ "bang", "int" ],
									"patching_rect" : [ 75.833251953125, 320.0, 29.5, 22.0 ],
									"text" : "t b i"
								}

							}
, 							{
								"box" : 								{
									"id" : "obj-23",
									"maxclass" : "newobj",
									"numinlets" : 2,
									"numoutlets" : 3,
									"outlettype" : [ "bang", "bang", "int" ],
									"patching_rect" : [ 71.0, 362.0, 40.0, 22.0 ],
									"text" : "uzi"
								}

							}
, 							{
								"box" : 								{
									"id" : "obj-25",
									"maxclass" : "newobj",
									"numinlets" : 2,
									"numoutlets" : 2,
									"outlettype" : [ "", "" ],
									"patching_rect" : [ 75.833251953125, 284.0, 99.0, 22.0 ],
									"text" : "route numbuffers"
								}

							}
, 							{
								"box" : 								{
									"id" : "obj-26",
									"maxclass" : "message",
									"numinlets" : 2,
									"numoutlets" : 1,
									"outlettype" : [ "" ],
									"patching_rect" : [ 140.833251953125, 228.0, 86.0, 22.0 ],
									"text" : "getnumbuffers"
								}

							}
, 							{
								"box" : 								{
									"comment" : "",
									"id" : "obj-35",
									"index" : 1,
									"maxclass" : "inlet",
									"numinlets" : 0,
									"numoutlets" : 1,
									"outlettype" : [ "" ],
									"patching_rect" : [ 72.0, 40.0, 30.0, 30.0 ]
								}

							}
 ],
						"lines" : [ 							{
								"patchline" : 								{
									"destination" : [ "obj-13", 0 ],
									"source" : [ "obj-106", 0 ]
								}

							}
, 							{
								"patchline" : 								{
									"destination" : [ "obj-25", 0 ],
									"source" : [ "obj-13", 0 ]
								}

							}
, 							{
								"patchline" : 								{
									"destination" : [ "obj-26", 0 ],
									"source" : [ "obj-17", 0 ]
								}

							}
, 							{
								"patchline" : 								{
									"destination" : [ "obj-1", 0 ],
									"source" : [ "obj-19", 0 ]
								}

							}
, 							{
								"patchline" : 								{
									"destination" : [ "obj-19", 0 ],
									"source" : [ "obj-20", 0 ]
								}

							}
, 							{
								"patchline" : 								{
									"destination" : [ "obj-24", 0 ],
									"source" : [ "obj-21", 0 ]
								}

							}
, 							{
								"patchline" : 								{
									"destination" : [ "obj-23", 1 ],
									"source" : [ "obj-22", 1 ]
								}

							}
, 							{
								"patchline" : 								{
									"destination" : [ "obj-23", 0 ],
									"source" : [ "obj-22", 0 ]
								}

							}
, 							{
								"patchline" : 								{
									"destination" : [ "obj-20", 0 ],
									"source" : [ "obj-23", 2 ]
								}

							}
, 							{
								"patchline" : 								{
									"destination" : [ "obj-20", 0 ],
									"source" : [ "obj-23", 1 ]
								}

							}
, 							{
								"patchline" : 								{
									"destination" : [ "obj-27", 0 ],
									"source" : [ "obj-24", 0 ]
								}

							}
, 							{
								"patchline" : 								{
									"destination" : [ "obj-22", 0 ],
									"source" : [ "obj-25", 0 ]
								}

							}
, 							{
								"patchline" : 								{
									"destination" : [ "obj-13", 0 ],
									"source" : [ "obj-26", 0 ]
								}

							}
, 							{
								"patchline" : 								{
									"destination" : [ "obj-17", 0 ],
									"source" : [ "obj-32", 0 ]
								}

							}
, 							{
								"patchline" : 								{
									"destination" : [ "obj-106", 0 ],
									"source" : [ "obj-35", 0 ]
								}

							}
, 							{
								"patchline" : 								{
									"destination" : [ "obj-26", 0 ],
									"source" : [ "obj-8", 0 ]
								}

							}
 ]
					}
,
					"patching_rect" : [ 665.076904296875, 192.5, 129.0, 22.0 ],
					"saved_object_attributes" : 					{
						"description" : "",
						"digest" : "",
						"globalpatchername" : "",
						"tags" : ""
					}
,
					"text" : "p set_included_buffers"
				}

			}
, 			{
				"box" : 				{
					"fontface" : 0,
					"id" : "obj-100",
					"maxclass" : "comment",
					"numinlets" : 1,
					"numoutlets" : 0,
					"patching_rect" : [ 95.076904296875, 185.5, 215.0, 20.0 ],
					"presentation" : 1,
					"presentation_rect" : [ 4.923095703125, 211.0, 48.0, 20.0 ],
					"text" : "presets",
					"textcolor" : [ 0.996078431606293, 0.972549021244049, 0.972549021244049, 1.0 ]
				}

			}
, 			{
				"box" : 				{
					"bubblesize" : 16,
					"id" : "obj-98",
					"maxclass" : "preset",
					"numinlets" : 1,
					"numoutlets" : 4,
					"outlettype" : [ "preset", "int", "preset", "int" ],
					"patching_rect" : [ 7.076904296875, 182.5, 86.0, 24.0 ],
					"presentation" : 1,
					"presentation_rect" : [ 54.923095703125, 210.0, 86.0, 24.0 ],
					"preset_data" : [ 						{
							"number" : 1,
							"data" : [ 16, "obj-49", "multislider", "list", 1.0, 1.0, 1.0, 1.0, 1.0, 1.0, 1.0, 1.0, 1.0, 1.0, 1.0, 1.0, 17, "obj-55", "multislider", "list", 0.0, 0.0, 0.0, 0.0, 0.0, 0.0, 0.0, 0.0, 0.0, 0.0, 0.0, 0.0, 0.0, 7, "obj-58", "multislider", "list", 0.290101528167725, 0.0, 0.584675133228302 ]
						}
, 						{
							"number" : 2,
							"data" : [ 16, "obj-49", "multislider", "list", 0.0, 0.0, 0.0, 0.0, 0.0, 0.0, 0.0, 0.0, 0.0, 0.0, 0.0, 0.0, 17, "obj-55", "multislider", "list", 1.0, 1.0, 1.0, 1.0, 1.0, 1.0, 1.0, 1.0, 1.0, 1.0, 1.0, 1.0, 1.0, 7, "obj-58", "multislider", "list", 0.0, 0.526535391807556, 0.526535391807556 ]
						}
, 						{
							"number" : 3,
							"data" : [ 16, "obj-49", "multislider", "list", 1.0, 1.0, 1.0, 1.0, 1.0, 1.0, 1.0, 1.0, 1.0, 1.0, 1.0, 1.0, 17, "obj-55", "multislider", "list", 1.0, 1.0, 1.0, 1.0, 1.0, 1.0, 1.0, 1.0, 1.0, 1.0, 1.0, 1.0, 1.0, 7, "obj-58", "multislider", "list", 1.0, 1.0, 1.0 ]
						}
 ]
				}

			}
, 			{
				"box" : 				{
					"id" : "obj-97",
					"maxclass" : "newobj",
					"numinlets" : 1,
					"numoutlets" : 12,
					"outlettype" : [ "float", "float", "float", "float", "float", "float", "float", "float", "float", "float", "float", "float" ],
					"patching_rect" : [ 328.2130126953125, 379.5, 222.5, 22.0 ],
					"text" : "unpack f f f f f f f f f f f f"
				}

			}
, 			{
				"box" : 				{
					"id" : "obj-96",
					"maxclass" : "newobj",
					"numinlets" : 1,
					"numoutlets" : 13,
					"outlettype" : [ "float", "float", "float", "float", "float", "float", "float", "float", "float", "float", "float", "float", "float" ],
					"patching_rect" : [ 71.52777099609375, 379.5, 251.222259521484375, 22.0 ],
					"text" : "unpack f f f f f f f f f f f f f"
				}

			}
, 			{
				"box" : 				{
					"id" : "obj-93",
					"linecount" : 2,
					"maxclass" : "newobj",
					"numinlets" : 1,
					"numoutlets" : 3,
					"outlettype" : [ "float", "float", "float" ],
					"patching_rect" : [ 14.1759033203125, 379.5, 57.0, 35.0 ],
					"text" : "unpack f f f"
				}

			}
, 			{
				"box" : 				{
					"id" : "obj-28",
					"maxclass" : "newobj",
					"numinlets" : 28,
					"numoutlets" : 1,
					"outlettype" : [ "" ],
					"patching_rect" : [ 13.47222900390625, 432.92303466796875, 541.5, 22.0 ],
					"text" : "pack f f f f f f f f f f f f f f f f f f f f f f f f f f f f"
				}

			}
, 			{
				"box" : 				{
					"fontface" : 1,
					"id" : "obj-88",
					"maxclass" : "comment",
					"numinlets" : 1,
					"numoutlets" : 0,
					"patching_rect" : [ 191.5, 1.923065185546875, 84.0, 20.0 ],
					"presentation" : 1,
					"presentation_rect" : [ 6.5, 1.423065185546875, 84.0, 20.0 ],
					"text" : "KNN Weights",
					"textcolor" : [ 0.996078431606293, 0.972549021244049, 0.972549021244049, 1.0 ]
				}

			}
, 			{
				"box" : 				{
					"fontface" : 1,
					"id" : "obj-82",
					"maxclass" : "comment",
					"numinlets" : 1,
					"numoutlets" : 0,
					"patching_rect" : [ 374.5, 159.5, 229.0, 20.0 ],
					"presentation" : 1,
					"presentation_rect" : [ 373.923095703125, 185.0, 229.0, 20.0 ],
					"text" : "Chroma",
					"textcolor" : [ 0.996078431606293, 0.972549021244049, 0.972549021244049, 1.0 ],
					"textjustification" : 1
				}

			}
, 			{
				"box" : 				{
					"fontface" : 1,
					"id" : "obj-80",
					"maxclass" : "comment",
					"numinlets" : 1,
					"numoutlets" : 0,
					"patching_rect" : [ 143.5, 159.5, 221.0, 20.0 ],
					"presentation" : 1,
					"presentation_rect" : [ 142.923095703125, 185.0, 221.0, 20.0 ],
					"text" : "MFCC",
					"textcolor" : [ 0.996078431606293, 0.972549021244049, 0.972549021244049, 1.0 ],
					"textjustification" : 1
				}

			}
, 			{
				"box" : 				{
					"fontface" : 1,
					"id" : "obj-71",
					"maxclass" : "comment",
					"numinlets" : 1,
					"numoutlets" : 0,
					"patching_rect" : [ 95.7884521484375, 158.5, 56.0, 20.0 ],
					"presentation" : 1,
					"presentation_rect" : [ 95.2115478515625, 185.0, 56.0, 20.0 ],
					"text" : "centroid",
					"textcolor" : [ 0.996078431606293, 0.972549021244049, 0.972549021244049, 1.0 ]
				}

			}
, 			{
				"box" : 				{
					"fontface" : 1,
					"id" : "obj-68",
					"maxclass" : "comment",
					"numinlets" : 1,
					"numoutlets" : 0,
					"patching_rect" : [ 62.7884521484375, 158.5, 30.0, 20.0 ],
					"presentation" : 1,
					"presentation_rect" : [ 62.2115478515625, 185.0, 30.0, 20.0 ],
					"text" : "flux",
					"textcolor" : [ 0.996078431606293, 0.972549021244049, 0.972549021244049, 1.0 ]
				}

			}
, 			{
				"box" : 				{
					"fontface" : 1,
					"id" : "obj-62",
					"maxclass" : "comment",
					"numinlets" : 1,
					"numoutlets" : 0,
					"patching_rect" : [ 2.076904296875, 158.5, 60.0, 20.0 ],
					"presentation" : 1,
					"presentation_rect" : [ 1.5, 185.0, 60.0, 20.0 ],
					"text" : "fund.freq",
					"textcolor" : [ 0.996078431606293, 0.972549021244049, 0.972549021244049, 1.0 ]
				}

			}
, 			{
				"box" : 				{
					"candicane2" : [ 0.702269, 0.811747, 0.303388, 1.0 ],
					"candicane3" : [ 0.54902, 0.584314, 0.705882, 1.0 ],
					"candycane" : 3,
					"id" : "obj-58",
					"maxclass" : "multislider",
					"numinlets" : 1,
					"numoutlets" : 2,
					"outlettype" : [ "", "" ],
					"parameter_enable" : 0,
					"patching_rect" : [ 7.076904296875, 25.923065185546875, 134.423095703125, 129.0 ],
					"presentation" : 1,
					"presentation_rect" : [ 6.5, 52.423095703125, 134.423095703125, 129.0 ],
					"setminmax" : [ 0.0, 1.0 ],
					"setstyle" : 1,
					"size" : 3,
					"slidercolor" : [ 0.941176, 0.690196, 0.196078, 1.0 ]
				}

			}
, 			{
				"box" : 				{
					"candicane2" : [ 0.65098, 0.666667, 0.662745, 1.0 ],
					"candycane" : 2,
					"id" : "obj-55",
					"maxclass" : "multislider",
					"numinlets" : 1,
					"numoutlets" : 2,
					"outlettype" : [ "", "" ],
					"parameter_enable" : 0,
					"patching_rect" : [ 143.5, 25.923065185546875, 221.0, 129.0 ],
					"presentation" : 1,
					"presentation_rect" : [ 142.923095703125, 52.423095703125, 221.0, 129.0 ],
					"setminmax" : [ 0.0, 1.0 ],
					"setstyle" : 1,
					"size" : 13,
					"slidercolor" : [ 0.862745, 0.870588, 0.878431, 1.0 ]
				}

			}
, 			{
				"box" : 				{
					"bgcolor" : [ 0.486274509803922, 0.494117647058824, 0.513725490196078, 0.0 ],
					"candicane2" : [ 0.290196078431373, 0.309803921568627, 0.301960784313725, 0.8 ],
					"candycane" : 2,
					"id" : "obj-49",
					"maxclass" : "multislider",
					"numinlets" : 1,
					"numoutlets" : 2,
					"outlettype" : [ "", "" ],
					"parameter_enable" : 0,
					"patching_rect" : [ 371.5, 27.923095703125, 224.0, 129.0 ],
					"presentation" : 1,
					"presentation_rect" : [ 370.923095703125, 52.423095703125, 224.0, 129.0 ],
					"setminmax" : [ 0.0, 1.0 ],
					"setstyle" : 1,
					"size" : 12,
					"slidercolor" : [ 0.650980392156863, 0.650980392156863, 0.650980392156863, 0.78 ]
				}

			}
, 			{
				"box" : 				{
					"id" : "obj-57",
					"ignoreclick" : 1,
					"maxclass" : "kslider",
					"numinlets" : 2,
					"numoutlets" : 2,
					"offset" : 0,
					"outlettype" : [ "int", "int" ],
					"parameter_enable" : 0,
					"patching_rect" : [ 371.5, 25.923065185546875, 224.0, 129.0 ],
					"presentation" : 1,
					"presentation_rect" : [ 370.923095703125, 52.423095703125, 224.0, 129.0 ],
					"range" : 12
				}

			}
, 			{
				"box" : 				{
					"id" : "obj-87",
					"maxclass" : "panel",
					"numinlets" : 1,
					"numoutlets" : 0,
					"patching_rect" : [ -1.0, -0.5, 604.5, 215.0 ],
					"presentation" : 1,
					"presentation_rect" : [ -0.076904296875, 0.423095703125, 780.076904296875, 262.576904296875 ]
				}

			}
, 			{
				"box" : 				{
					"id" : "obj-9",
					"maxclass" : "newobj",
					"numinlets" : 1,
					"numoutlets" : 0,
					"patching_rect" : [ 922.11669921875, 449.0999755859375, 103.0, 22.0 ],
					"text" : "print knn-included"
				}

			}
, 			{
				"box" : 				{
					"id" : "obj-7",
					"maxclass" : "newobj",
					"numinlets" : 1,
					"numoutlets" : 4,
					"outlettype" : [ "list", "list", "list", "list" ],
					"patching_rect" : [ 636.11669921875, 406.0999755859375, 305.0, 22.0 ],
					"text" : "mubu.knn corpus descriptor_segments @radius 0 @k 1",
					"varname" : "corpus-knn"
				}

			}
, 			{
				"box" : 				{
					"attr" : "trackid",
					"id" : "obj-110",
					"maxclass" : "attrui",
					"numinlets" : 1,
					"numoutlets" : 1,
					"outlettype" : [ "" ],
					"patching_rect" : [ 676.076904296875, 274.5, 207.0, 22.0 ]
				}

			}
, 			{
				"box" : 				{
					"attr" : "mubuname",
					"id" : "obj-111",
					"maxclass" : "attrui",
					"numinlets" : 1,
					"numoutlets" : 1,
					"outlettype" : [ "" ],
					"patching_rect" : [ 676.076904296875, 247.0999755859375, 207.0, 22.0 ]
				}

			}
, 			{
				"box" : 				{
					"id" : "obj-10",
					"maxclass" : "newobj",
					"numinlets" : 1,
					"numoutlets" : 2,
					"outlettype" : [ "", "" ],
					"patching_rect" : [ 665.076904296875, 153.5, 29.5, 22.0 ],
					"text" : "t l l"
				}

			}
, 			{
				"box" : 				{
					"id" : "obj-12",
					"maxclass" : "newobj",
					"numinlets" : 2,
					"numoutlets" : 2,
					"outlettype" : [ "", "" ],
					"patching_rect" : [ 665.076904296875, 107.5, 99.0, 22.0 ],
					"text" : "route mubuname"
				}

			}
, 			{
				"box" : 				{
					"id" : "obj-101",
					"maxclass" : "newobj",
					"numinlets" : 0,
					"numoutlets" : 1,
					"outlettype" : [ "" ],
					"patching_rect" : [ 665.076904296875, 81.0, 111.0, 22.0 ],
					"text" : "r player.mubuname"
				}

			}
 ],
		"lines" : [ 			{
				"patchline" : 				{
					"destination" : [ "obj-111", 0 ],
					"source" : [ "obj-10", 1 ]
				}

			}
, 			{
				"patchline" : 				{
					"destination" : [ "obj-36", 0 ],
					"source" : [ "obj-10", 0 ]
				}

			}
, 			{
				"patchline" : 				{
					"destination" : [ "obj-12", 0 ],
					"source" : [ "obj-101", 0 ]
				}

			}
, 			{
				"patchline" : 				{
					"destination" : [ "obj-42", 0 ],
					"source" : [ "obj-107", 0 ]
				}

			}
, 			{
				"patchline" : 				{
					"destination" : [ "obj-6", 0 ],
					"source" : [ "obj-11", 0 ]
				}

			}
, 			{
				"patchline" : 				{
					"destination" : [ "obj-7", 0 ],
					"source" : [ "obj-110", 0 ]
				}

			}
, 			{
				"patchline" : 				{
					"destination" : [ "obj-7", 0 ],
					"source" : [ "obj-111", 0 ]
				}

			}
, 			{
				"patchline" : 				{
					"destination" : [ "obj-10", 0 ],
					"source" : [ "obj-12", 0 ]
				}

			}
, 			{
				"patchline" : 				{
					"destination" : [ "obj-7", 0 ],
					"source" : [ "obj-13", 0 ]
				}

			}
, 			{
				"patchline" : 				{
					"destination" : [ "obj-75", 0 ],
					"source" : [ "obj-14", 0 ]
				}

			}
, 			{
				"patchline" : 				{
					"destination" : [ "obj-30", 0 ],
					"source" : [ "obj-21", 0 ]
				}

			}
, 			{
				"patchline" : 				{
					"destination" : [ "obj-7", 0 ],
					"source" : [ "obj-23", 0 ]
				}

			}
, 			{
				"patchline" : 				{
					"destination" : [ "obj-107", 3 ],
					"order" : 1,
					"source" : [ "obj-25", 0 ]
				}

			}
, 			{
				"patchline" : 				{
					"destination" : [ "obj-14", 0 ],
					"order" : 0,
					"source" : [ "obj-25", 0 ]
				}

			}
, 			{
				"patchline" : 				{
					"destination" : [ "obj-23", 0 ],
					"order" : 2,
					"source" : [ "obj-25", 0 ]
				}

			}
, 			{
				"patchline" : 				{
					"destination" : [ "obj-38", 0 ],
					"source" : [ "obj-28", 0 ]
				}

			}
, 			{
				"patchline" : 				{
					"destination" : [ "obj-25", 0 ],
					"source" : [ "obj-29", 0 ]
				}

			}
, 			{
				"patchline" : 				{
					"destination" : [ "obj-49", 0 ],
					"source" : [ "obj-30", 0 ]
				}

			}
, 			{
				"patchline" : 				{
					"destination" : [ "obj-32", 0 ],
					"source" : [ "obj-31", 0 ]
				}

			}
, 			{
				"patchline" : 				{
					"destination" : [ "obj-107", 2 ],
					"order" : 1,
					"source" : [ "obj-32", 0 ]
				}

			}
, 			{
				"patchline" : 				{
					"destination" : [ "obj-14", 0 ],
					"order" : 0,
					"source" : [ "obj-32", 0 ]
				}

			}
, 			{
				"patchline" : 				{
					"destination" : [ "obj-55", 0 ],
					"source" : [ "obj-33", 0 ]
				}

			}
, 			{
				"patchline" : 				{
					"destination" : [ "obj-33", 0 ],
					"source" : [ "obj-34", 0 ]
				}

			}
, 			{
				"patchline" : 				{
					"destination" : [ "obj-13", 0 ],
					"source" : [ "obj-35", 0 ]
				}

			}
, 			{
				"patchline" : 				{
					"destination" : [ "obj-7", 0 ],
					"source" : [ "obj-36", 0 ]
				}

			}
, 			{
				"patchline" : 				{
					"destination" : [ "obj-7", 0 ],
					"source" : [ "obj-37", 0 ]
				}

			}
, 			{
				"patchline" : 				{
					"destination" : [ "obj-7", 0 ],
					"source" : [ "obj-38", 0 ]
				}

			}
, 			{
				"patchline" : 				{
					"destination" : [ "obj-41", 0 ],
					"source" : [ "obj-39", 0 ]
				}

			}
, 			{
				"patchline" : 				{
					"destination" : [ "obj-98", 0 ],
					"source" : [ "obj-4", 0 ]
				}

			}
, 			{
				"patchline" : 				{
					"destination" : [ "obj-21", 0 ],
					"order" : 0,
					"source" : [ "obj-40", 0 ]
				}

			}
, 			{
				"patchline" : 				{
					"destination" : [ "obj-34", 0 ],
					"order" : 1,
					"source" : [ "obj-40", 0 ]
				}

			}
, 			{
				"patchline" : 				{
					"destination" : [ "obj-7", 0 ],
					"source" : [ "obj-41", 1 ]
				}

			}
, 			{
				"patchline" : 				{
					"destination" : [ "obj-7", 0 ],
					"source" : [ "obj-41", 0 ]
				}

			}
, 			{
				"patchline" : 				{
					"destination" : [ "obj-30", 2 ],
					"order" : 1,
					"source" : [ "obj-44", 0 ]
				}

			}
, 			{
				"patchline" : 				{
					"destination" : [ "obj-33", 2 ],
					"order" : 2,
					"source" : [ "obj-44", 0 ]
				}

			}
, 			{
				"patchline" : 				{
					"destination" : [ "obj-40", 0 ],
					"order" : 0,
					"source" : [ "obj-44", 0 ]
				}

			}
, 			{
				"patchline" : 				{
					"destination" : [ "obj-44", 0 ],
					"source" : [ "obj-48", 0 ]
				}

			}
, 			{
				"patchline" : 				{
					"destination" : [ "obj-30", 1 ],
					"order" : 0,
					"source" : [ "obj-49", 0 ]
				}

			}
, 			{
				"patchline" : 				{
					"destination" : [ "obj-97", 0 ],
					"order" : 1,
					"source" : [ "obj-49", 0 ]
				}

			}
, 			{
				"patchline" : 				{
					"destination" : [ "obj-7", 0 ],
					"source" : [ "obj-5", 0 ]
				}

			}
, 			{
				"patchline" : 				{
					"destination" : [ "obj-33", 1 ],
					"order" : 0,
					"source" : [ "obj-55", 0 ]
				}

			}
, 			{
				"patchline" : 				{
					"destination" : [ "obj-96", 0 ],
					"order" : 1,
					"source" : [ "obj-55", 0 ]
				}

			}
, 			{
				"patchline" : 				{
					"destination" : [ "obj-93", 0 ],
					"source" : [ "obj-58", 0 ]
				}

			}
, 			{
				"patchline" : 				{
					"destination" : [ "obj-8", 0 ],
					"source" : [ "obj-6", 0 ]
				}

			}
, 			{
				"patchline" : 				{
					"destination" : [ "obj-107", 1 ],
					"source" : [ "obj-7", 1 ]
				}

			}
, 			{
				"patchline" : 				{
					"destination" : [ "obj-107", 0 ],
					"source" : [ "obj-7", 0 ]
				}

			}
, 			{
				"patchline" : 				{
					"destination" : [ "obj-17", 0 ],
					"source" : [ "obj-7", 2 ]
				}

			}
, 			{
				"patchline" : 				{
					"destination" : [ "obj-9", 0 ],
					"source" : [ "obj-7", 3 ]
				}

			}
, 			{
				"patchline" : 				{
					"destination" : [ "obj-7", 0 ],
					"source" : [ "obj-8", 0 ]
				}

			}
, 			{
				"patchline" : 				{
					"destination" : [ "obj-28", 2 ],
					"source" : [ "obj-93", 2 ]
				}

			}
, 			{
				"patchline" : 				{
					"destination" : [ "obj-28", 1 ],
					"source" : [ "obj-93", 1 ]
				}

			}
, 			{
				"patchline" : 				{
					"destination" : [ "obj-28", 0 ],
					"source" : [ "obj-93", 0 ]
				}

			}
, 			{
				"patchline" : 				{
					"destination" : [ "obj-28", 15 ],
					"source" : [ "obj-96", 12 ]
				}

			}
, 			{
				"patchline" : 				{
					"destination" : [ "obj-28", 14 ],
					"source" : [ "obj-96", 11 ]
				}

			}
, 			{
				"patchline" : 				{
					"destination" : [ "obj-28", 13 ],
					"source" : [ "obj-96", 10 ]
				}

			}
, 			{
				"patchline" : 				{
					"destination" : [ "obj-28", 12 ],
					"source" : [ "obj-96", 9 ]
				}

			}
, 			{
				"patchline" : 				{
					"destination" : [ "obj-28", 11 ],
					"source" : [ "obj-96", 8 ]
				}

			}
, 			{
				"patchline" : 				{
					"destination" : [ "obj-28", 10 ],
					"source" : [ "obj-96", 7 ]
				}

			}
, 			{
				"patchline" : 				{
					"destination" : [ "obj-28", 9 ],
					"source" : [ "obj-96", 6 ]
				}

			}
, 			{
				"patchline" : 				{
					"destination" : [ "obj-28", 8 ],
					"source" : [ "obj-96", 5 ]
				}

			}
, 			{
				"patchline" : 				{
					"destination" : [ "obj-28", 7 ],
					"source" : [ "obj-96", 4 ]
				}

			}
, 			{
				"patchline" : 				{
					"destination" : [ "obj-28", 6 ],
					"source" : [ "obj-96", 3 ]
				}

			}
, 			{
				"patchline" : 				{
					"destination" : [ "obj-28", 5 ],
					"source" : [ "obj-96", 2 ]
				}

			}
, 			{
				"patchline" : 				{
					"destination" : [ "obj-28", 4 ],
					"source" : [ "obj-96", 1 ]
				}

			}
, 			{
				"patchline" : 				{
					"destination" : [ "obj-28", 3 ],
					"source" : [ "obj-96", 0 ]
				}

			}
, 			{
				"patchline" : 				{
					"destination" : [ "obj-28", 27 ],
					"source" : [ "obj-97", 11 ]
				}

			}
, 			{
				"patchline" : 				{
					"destination" : [ "obj-28", 26 ],
					"source" : [ "obj-97", 10 ]
				}

			}
, 			{
				"patchline" : 				{
					"destination" : [ "obj-28", 25 ],
					"source" : [ "obj-97", 9 ]
				}

			}
, 			{
				"patchline" : 				{
					"destination" : [ "obj-28", 24 ],
					"source" : [ "obj-97", 8 ]
				}

			}
, 			{
				"patchline" : 				{
					"destination" : [ "obj-28", 23 ],
					"source" : [ "obj-97", 7 ]
				}

			}
, 			{
				"patchline" : 				{
					"destination" : [ "obj-28", 22 ],
					"source" : [ "obj-97", 6 ]
				}

			}
, 			{
				"patchline" : 				{
					"destination" : [ "obj-28", 21 ],
					"source" : [ "obj-97", 5 ]
				}

			}
, 			{
				"patchline" : 				{
					"destination" : [ "obj-28", 20 ],
					"source" : [ "obj-97", 4 ]
				}

			}
, 			{
				"patchline" : 				{
					"destination" : [ "obj-28", 19 ],
					"source" : [ "obj-97", 3 ]
				}

			}
, 			{
				"patchline" : 				{
					"destination" : [ "obj-28", 18 ],
					"source" : [ "obj-97", 2 ]
				}

			}
, 			{
				"patchline" : 				{
					"destination" : [ "obj-28", 17 ],
					"source" : [ "obj-97", 1 ]
				}

			}
, 			{
				"patchline" : 				{
					"destination" : [ "obj-28", 16 ],
					"source" : [ "obj-97", 0 ]
				}

			}
, 			{
				"patchline" : 				{
					"destination" : [ "obj-49", 0 ],
					"order" : 0,
					"source" : [ "obj-98", 0 ]
				}

			}
, 			{
				"patchline" : 				{
					"destination" : [ "obj-55", 0 ],
					"order" : 1,
					"source" : [ "obj-98", 0 ]
				}

			}
, 			{
				"patchline" : 				{
					"destination" : [ "obj-58", 0 ],
					"order" : 2,
					"source" : [ "obj-98", 0 ]
				}

			}
 ],
		"dependency_cache" : [ 			{
				"name" : "mubu.knn.mxo",
				"type" : "iLaX"
			}
, 			{
				"name" : "mubu.mxo",
				"type" : "iLaX"
			}
 ],
		"autosave" : 0,
		"styles" : [ 			{
				"name" : "AudioStatus_Menu",
				"default" : 				{
					"bgfillcolor" : 					{
						"type" : "color",
						"color" : [ 0.294118, 0.313726, 0.337255, 1 ],
						"color1" : [ 0.454902, 0.462745, 0.482353, 0.0 ],
						"color2" : [ 0.290196, 0.309804, 0.301961, 1.0 ],
						"angle" : 270.0,
						"proportion" : 0.39,
						"autogradient" : 0
					}

				}
,
				"parentstyle" : "",
				"multi" : 0
			}
, 			{
				"name" : "Jamoma_highlighted_orange",
				"default" : 				{
					"accentcolor" : [ 1.0, 0.5, 0.0, 1.0 ]
				}
,
				"parentstyle" : "",
				"multi" : 0
			}
 ]
	}

}
